<svg width="257" height="488" viewBox="0 0 257 488" fill="none" xmlns="http://www.w3.org/2000/svg">
<g filter="url(#filter0_d_60_2395)">
<path d="M239 110.951V456.09C239 461.578 234.578 466.04 229.09 466.09L28.0905 467.909C22.5325 467.959 18 463.467 18 457.909V112.801C18 107.278 22.4771 102.801 28 102.801H83.9048C121.277 102.801 128.512 63.9369 133.109 47.6881C133.267 46.9942 133.444 46.3076 133.641 45.6291C138.096 30.2472 151.304 16 168.143 16C185.391 16 199.879 27.8008 203.952 43.7583C206.596 56.6428 214.979 87.8286 229.498 97.7308C234.109 100.875 239 105.37 239 110.951Z" fill="white"/>
</g>
<defs>
<filter id="filter0_d_60_2395" x="0" y="0" width="257" height="487.909" filterUnits="userSpaceOnUse" color-interpolation-filters="sRGB">
<feFlood flood-opacity="0" result="BackgroundImageFix"/>
<feColorMatrix in="SourceAlpha" type="matrix" values="0 0 0 0 0 0 0 0 0 0 0 0 0 0 0 0 0 0 127 0" result="hardAlpha"/>
<feOffset dy="2"/>
<feGaussianBlur stdDeviation="9"/>
<feColorMatrix type="matrix" values="0 0 0 0 0.160784 0 0 0 0 0.160784 0 0 0 0 0.160784 0 0 0 0.1 0"/>
<feBlend mode="normal" in2="BackgroundImageFix" result="effect1_dropShadow_60_2395"/>
<feBlend mode="normal" in="SourceGraphic" in2="effect1_dropShadow_60_2395" result="shape"/>
</filter>
</defs>
</svg>
